<svg width="240" height="240" viewBox="0 0 240 240" fill="none" xmlns="http://www.w3.org/2000/svg">
<circle cx="120" cy="120" r="105" stroke="#022F78" stroke-width="30"/>
<mask id="path-2-inside-1" fill="white">
<path d="M240 120C240 104.241 236.896 88.6371 230.866 74.078C224.835 59.5189 215.996 46.2902 204.853 35.1472C193.71 24.0041 180.481 15.165 165.922 9.13445C151.363 3.10389 135.759 -2.5674e-06 120 0L120 29.9984C131.819 29.9984 143.523 32.3264 154.442 36.8494C165.362 41.3724 175.283 48.0018 183.641 56.3593C191.998 64.7167 198.628 74.6384 203.151 85.5579C207.674 96.4774 210.002 108.181 210.002 120H240Z"/>
</mask>
<path d="M240 120C240 104.241 236.896 88.6371 230.866 74.078C224.835 59.5189 215.996 46.2902 204.853 35.1472C193.71 24.0041 180.481 15.165 165.922 9.13445C151.363 3.10389 135.759 -2.5674e-06 120 0L120 29.9984C131.819 29.9984 143.523 32.3264 154.442 36.8494C165.362 41.3724 175.283 48.0018 183.641 56.3593C191.998 64.7167 198.628 74.6384 203.151 85.5579C207.674 96.4774 210.002 108.181 210.002 120H240Z" stroke="#EB5757" stroke-width="60" mask="url(#path-2-inside-1)"/>
<mask id="path-3-inside-2" fill="white">
<path d="M120 0C104.241 -1.8792e-07 88.6371 3.10389 74.078 9.13446C59.5189 15.165 46.2902 24.0042 35.1472 35.1472L56.344 56.344C64.7035 47.9846 74.6275 41.3536 85.5496 36.8295C96.4717 32.3054 108.178 29.9769 120 29.9769V0Z"/>
</mask>
<path d="M120 0C104.241 -1.8792e-07 88.6371 3.10389 74.078 9.13446C59.5189 15.165 46.2902 24.0042 35.1472 35.1472L56.344 56.344C64.7035 47.9846 74.6275 41.3536 85.5496 36.8295C96.4717 32.3054 108.178 29.9769 120 29.9769V0Z" stroke="#9B51E0" stroke-width="60" mask="url(#path-3-inside-2)"/>
<mask id="path-4-inside-3" fill="white">
<path d="M35.1472 35.1472C23.7243 46.5701 14.7254 60.1817 8.68991 75.1663C2.6544 90.1508 -0.293459 106.2 0.0230322 122.351C0.339523 138.502 3.91385 154.423 10.5318 169.16C17.1497 183.897 26.6749 197.145 38.5365 208.112L58.9025 186.084C50.0063 177.859 42.8624 167.922 37.899 156.87C32.9356 145.817 30.2548 133.877 30.0175 121.763C29.7801 109.65 31.991 97.6132 36.5176 86.3748C41.0442 75.1364 47.7934 64.9277 56.3605 56.3605L35.1472 35.1472Z"/>
</mask>
<path d="M35.1472 35.1472C23.7243 46.5701 14.7254 60.1817 8.68991 75.1663C2.6544 90.1508 -0.293459 106.2 0.0230322 122.351C0.339523 138.502 3.91385 154.423 10.5318 169.16C17.1497 183.897 26.6749 197.145 38.5365 208.112L58.9025 186.084C50.0063 177.859 42.8624 167.922 37.899 156.87C32.9356 145.817 30.2548 133.877 30.0175 121.763C29.7801 109.65 31.991 97.6132 36.5176 86.3748C41.0442 75.1364 47.7934 64.9277 56.3605 56.3605L35.1472 35.1472Z" stroke="#F2C94C" stroke-width="60" mask="url(#path-4-inside-3)"/>
<mask id="path-5-inside-4" fill="white">
<path d="M38.4174 208.002C54.2472 222.677 73.7422 232.811 94.8483 237.335C115.954 241.859 137.89 240.607 158.344 233.709L148.795 205.391C133.435 210.571 116.85 211.398 101 208C85.1501 204.603 70.6224 197.106 58.735 186.086L38.4174 208.002Z"/>
</mask>
<path d="M38.4174 208.002L16.417 187.607L-3.97863 209.607L18.0218 230.003L38.4174 208.002ZM158.344 233.709L167.93 262.137L196.357 252.551L186.771 224.123L158.344 233.709ZM148.795 205.391L177.222 195.805L167.636 167.378L139.209 176.964L148.795 205.391ZM58.735 186.086L79.1306 164.086L57.1302 143.69L36.7346 165.69L58.735 186.086ZM18.0218 230.003C37.809 248.346 62.1777 261.013 88.5604 266.669L101.136 208.001C85.3066 204.608 70.6854 197.008 58.813 186.002L18.0218 230.003ZM88.5604 266.669C114.943 272.324 142.363 270.758 167.93 262.137L148.758 205.282C133.418 210.455 116.966 211.395 101.136 208.001L88.5604 266.669ZM186.771 224.123L177.222 195.805L120.368 214.977L129.917 243.295L186.771 224.123ZM139.209 176.964C129.107 180.37 118.012 180.966 107.288 178.667L94.712 237.334C115.687 241.83 137.763 240.771 158.381 233.818L139.209 176.964ZM107.288 178.667C96.6527 176.387 87.0145 171.394 79.1306 164.086L38.3394 208.086C54.2304 222.818 73.6476 232.819 94.712 237.334L107.288 178.667ZM36.7346 165.69L16.417 187.607L60.4178 228.398L80.7354 206.482L36.7346 165.69Z" fill="#56CCF2" mask="url(#path-5-inside-4)"/>
<mask id="path-7-inside-5" fill="white">
<path d="M158.426 233.681C182.201 225.645 202.859 210.356 217.492 189.967C232.125 169.577 239.997 145.112 240 120.015L210.007 120.012C210.005 138.836 204.1 157.186 193.125 172.479C182.149 187.773 166.655 199.24 148.822 205.268L158.426 233.681Z"/>
</mask>
<path d="M158.426 233.681C182.201 225.645 202.859 210.356 217.492 189.967C232.125 169.577 239.997 145.112 240 120.015L210.007 120.012C210.005 138.836 204.1 157.186 193.125 172.479C182.149 187.773 166.655 199.24 148.822 205.268L158.426 233.681Z" stroke="#F2994A" stroke-width="60" mask="url(#path-7-inside-5)"/>
<path d="M119.508 109.062H116.965V113H115.102V109.062H106.769V107.363L114.902 95.7734H116.965V107.293H119.508V109.062ZM115.102 107.293V101.598C115.102 100.48 115.141 99.2188 115.219 97.8125H115.125C114.75 98.5625 114.398 99.1836 114.07 99.6758L108.715 107.293H115.102ZM126.527 102.535C128.332 102.535 129.75 102.984 130.781 103.883C131.82 104.773 132.34 105.996 132.34 107.551C132.34 109.324 131.773 110.715 130.641 111.723C129.516 112.73 127.961 113.234 125.977 113.234C124.047 113.234 122.574 112.926 121.559 112.309V110.434C122.105 110.785 122.785 111.062 123.598 111.266C124.41 111.461 125.211 111.559 126 111.559C127.375 111.559 128.441 111.234 129.199 110.586C129.965 109.938 130.348 109 130.348 107.773C130.348 105.383 128.883 104.188 125.953 104.188C125.211 104.188 124.219 104.301 122.977 104.527L121.969 103.883L122.613 95.8672H131.133V97.6602H124.277L123.844 102.805C124.742 102.625 125.637 102.535 126.527 102.535Z" fill="#3E3E3E"/>
<path d="M68.9882 130.402C67.1054 130.402 65.6171 131.031 64.5234 132.289C63.4375 133.539 62.8945 135.254 62.8945 137.434C62.8945 139.676 63.4179 141.41 64.4648 142.637C65.5195 143.855 67.0195 144.465 68.9648 144.465C70.1601 144.465 71.5234 144.25 73.0546 143.82V145.566C71.8671 146.012 70.4023 146.234 68.6601 146.234C66.1367 146.234 64.1875 145.469 62.8125 143.938C61.4453 142.406 60.7617 140.23 60.7617 137.41C60.7617 135.645 61.0898 134.098 61.7461 132.77C62.4101 131.441 63.3632 130.418 64.6054 129.699C65.8554 128.98 67.3242 128.621 69.0117 128.621C70.8086 128.621 72.3789 128.949 73.7226 129.605L72.8789 131.316C71.582 130.707 70.2851 130.402 68.9882 130.402ZM78.3281 133.156V141.488C78.3281 142.535 78.5664 143.316 79.0429 143.832C79.5195 144.348 80.2656 144.605 81.2812 144.605C82.625 144.605 83.6054 144.238 84.2226 143.504C84.8476 142.77 85.1601 141.57 85.1601 139.906V133.156H87.1054V146H85.5L85.2187 144.277H85.1132C84.7148 144.91 84.1601 145.395 83.4492 145.73C82.7461 146.066 81.9414 146.234 81.0351 146.234C79.4726 146.234 78.3007 145.863 77.5195 145.121C76.7461 144.379 76.3593 143.191 76.3593 141.559V133.156H78.3281ZM99.5273 142.496C99.5273 143.691 99.082 144.613 98.1914 145.262C97.3007 145.91 96.0507 146.234 94.4414 146.234C92.7382 146.234 91.4101 145.965 90.457 145.426V143.621C91.0742 143.934 91.7343 144.18 92.4375 144.359C93.1484 144.539 93.832 144.629 94.4882 144.629C95.5039 144.629 96.2851 144.469 96.832 144.148C97.3789 143.82 97.6523 143.324 97.6523 142.66C97.6523 142.16 97.4336 141.734 96.9961 141.383C96.5664 141.023 95.7226 140.602 94.4648 140.117C93.2695 139.672 92.4179 139.285 91.9101 138.957C91.4101 138.621 91.0351 138.242 90.7851 137.82C90.5429 137.398 90.4218 136.895 90.4218 136.309C90.4218 135.262 90.8476 134.438 91.6992 133.836C92.5507 133.227 93.7187 132.922 95.2031 132.922C96.5859 132.922 97.9375 133.203 99.2578 133.766L98.5664 135.348C97.2773 134.816 96.1093 134.551 95.0625 134.551C94.1406 134.551 93.4453 134.695 92.9765 134.984C92.5078 135.273 92.2734 135.672 92.2734 136.18C92.2734 136.523 92.3593 136.816 92.5312 137.059C92.7109 137.301 92.9961 137.531 93.3867 137.75C93.7773 137.969 94.5273 138.285 95.6367 138.699C97.1601 139.254 98.1875 139.812 98.7187 140.375C99.2578 140.938 99.5273 141.645 99.5273 142.496ZM106.852 144.629C107.195 144.629 107.527 144.605 107.848 144.559C108.168 144.504 108.422 144.449 108.609 144.395V145.883C108.398 145.984 108.086 146.066 107.672 146.129C107.266 146.199 106.898 146.234 106.57 146.234C104.086 146.234 102.844 144.926 102.844 142.309V134.668H101.004V133.73L102.844 132.922L103.664 130.18H104.789V133.156H108.516V134.668H104.789V142.227C104.789 143 104.973 143.594 105.34 144.008C105.707 144.422 106.211 144.629 106.852 144.629ZM122.273 139.566C122.273 141.66 121.746 143.297 120.691 144.477C119.637 145.648 118.18 146.234 116.32 146.234C115.172 146.234 114.152 145.965 113.262 145.426C112.371 144.887 111.684 144.113 111.199 143.105C110.715 142.098 110.473 140.918 110.473 139.566C110.473 137.473 110.996 135.844 112.043 134.68C113.09 133.508 114.543 132.922 116.402 132.922C118.199 132.922 119.625 133.52 120.68 134.715C121.742 135.91 122.273 137.527 122.273 139.566ZM112.488 139.566C112.488 141.207 112.816 142.457 113.473 143.316C114.129 144.176 115.094 144.605 116.367 144.605C117.641 144.605 118.605 144.18 119.262 143.328C119.926 142.469 120.258 141.215 120.258 139.566C120.258 137.934 119.926 136.695 119.262 135.852C118.605 135 117.633 134.574 116.344 134.574C115.07 134.574 114.109 134.992 113.461 135.828C112.812 136.664 112.488 137.91 112.488 139.566ZM142.066 146V137.645C142.066 136.621 141.848 135.855 141.41 135.348C140.973 134.832 140.293 134.574 139.371 134.574C138.16 134.574 137.266 134.922 136.687 135.617C136.109 136.312 135.82 137.383 135.82 138.828V146H133.875V137.645C133.875 136.621 133.656 135.855 133.219 135.348C132.781 134.832 132.098 134.574 131.168 134.574C129.949 134.574 129.055 134.941 128.484 135.676C127.922 136.402 127.641 137.598 127.641 139.262V146H125.695V133.156H127.277L127.594 134.914H127.687C128.055 134.289 128.57 133.801 129.234 133.449C129.906 133.098 130.656 132.922 131.484 132.922C133.492 132.922 134.805 133.648 135.422 135.102H135.516C135.898 134.43 136.453 133.898 137.18 133.508C137.906 133.117 138.734 132.922 139.664 132.922C141.117 132.922 142.203 133.297 142.922 134.047C143.648 134.789 144.012 135.98 144.012 137.621V146H142.066ZM153.457 146.234C151.559 146.234 150.059 145.656 148.957 144.5C147.863 143.344 147.316 141.738 147.316 139.684C147.316 137.613 147.824 135.969 148.84 134.75C149.863 133.531 151.234 132.922 152.953 132.922C154.562 132.922 155.836 133.453 156.773 134.516C157.711 135.57 158.18 136.965 158.18 138.699V139.93H149.332C149.371 141.438 149.75 142.582 150.469 143.363C151.195 144.145 152.215 144.535 153.527 144.535C154.91 144.535 156.277 144.246 157.629 143.668V145.402C156.941 145.699 156.289 145.91 155.672 146.035C155.062 146.168 154.324 146.234 153.457 146.234ZM152.93 134.551C151.898 134.551 151.074 134.887 150.457 135.559C149.848 136.23 149.488 137.16 149.379 138.348H156.094C156.094 137.121 155.82 136.184 155.273 135.535C154.727 134.879 153.945 134.551 152.93 134.551ZM167.367 132.922C167.937 132.922 168.449 132.969 168.902 133.062L168.633 134.867C168.102 134.75 167.633 134.691 167.227 134.691C166.187 134.691 165.297 135.113 164.555 135.957C163.82 136.801 163.453 137.852 163.453 139.109V146H161.508V133.156H163.113L163.336 135.535H163.43C163.906 134.699 164.48 134.055 165.152 133.602C165.824 133.148 166.562 132.922 167.367 132.922ZM179.59 142.496C179.59 143.691 179.144 144.613 178.254 145.262C177.363 145.91 176.113 146.234 174.504 146.234C172.801 146.234 171.473 145.965 170.519 145.426V143.621C171.137 143.934 171.797 144.18 172.5 144.359C173.211 144.539 173.894 144.629 174.551 144.629C175.566 144.629 176.348 144.469 176.894 144.148C177.441 143.82 177.715 143.324 177.715 142.66C177.715 142.16 177.496 141.734 177.059 141.383C176.629 141.023 175.785 140.602 174.527 140.117C173.332 139.672 172.48 139.285 171.973 138.957C171.473 138.621 171.098 138.242 170.848 137.82C170.605 137.398 170.484 136.895 170.484 136.309C170.484 135.262 170.91 134.438 171.762 133.836C172.613 133.227 173.781 132.922 175.266 132.922C176.648 132.922 178 133.203 179.32 133.766L178.629 135.348C177.34 134.816 176.172 134.551 175.125 134.551C174.203 134.551 173.508 134.695 173.039 134.984C172.57 135.273 172.336 135.672 172.336 136.18C172.336 136.523 172.422 136.816 172.594 137.059C172.773 137.301 173.059 137.531 173.449 137.75C173.84 137.969 174.59 138.285 175.699 138.699C177.223 139.254 178.25 139.812 178.781 140.375C179.32 140.938 179.59 141.645 179.59 142.496Z" fill="#EB5757"/>
</svg>
