<svg width="21" height="16" viewBox="0 0 21 16" fill="none" xmlns="http://www.w3.org/2000/svg">
<path d="M18.9761 4H2.97607V2H18.9761V4ZM18.9761 14H2.97607V8H18.9761V14ZM18.9761 0H2.97607C1.86607 0 0.976074 0.89 0.976074 2V14C0.976074 14.5304 1.18679 15.0391 1.56186 15.4142C1.93693 15.7893 2.44564 16 2.97607 16H18.9761C19.5065 16 20.0152 15.7893 20.3903 15.4142C20.7654 15.0391 20.9761 14.5304 20.9761 14V2C20.9761 1.46957 20.7654 0.960859 20.3903 0.585786C20.0152 0.210714 19.5065 0 18.9761 0Z" fill="#039900"/>
</svg>
